<mxfile host="65bd71144e">
    <diagram id="L1CkRyodAxUsox6R4UOZ" name="Page-1">
        <mxGraphModel dx="225" dy="315" grid="1" gridSize="10" guides="1" tooltips="1" connect="1" arrows="1" fold="1" page="1" pageScale="1" pageWidth="850" pageHeight="1100" math="0" shadow="0">
            <root>
                <mxCell id="0"/>
                <mxCell id="1" parent="0"/>
                <mxCell id="2" value="" style="rounded=0;whiteSpace=wrap;html=1;" parent="1" vertex="1">
                    <mxGeometry x="160" y="140" width="380" height="280" as="geometry"/>
                </mxCell>
                <mxCell id="7" value="" style="rounded=0;whiteSpace=wrap;html=1;" parent="1" vertex="1">
                    <mxGeometry x="190" y="180" width="120" height="90" as="geometry"/>
                </mxCell>
                <mxCell id="8" value="" style="rounded=1;whiteSpace=wrap;html=1;" parent="1" vertex="1">
                    <mxGeometry x="380" y="175" width="140" height="210" as="geometry"/>
                </mxCell>
                <mxCell id="9" value="" style="rounded=0;whiteSpace=wrap;html=1;" parent="1" vertex="1">
                    <mxGeometry x="200" y="190" width="100" height="10" as="geometry"/>
                </mxCell>
                <mxCell id="12" value="" style="rounded=0;whiteSpace=wrap;html=1;" parent="1" vertex="1">
                    <mxGeometry x="380" y="200" width="140" height="30" as="geometry"/>
                </mxCell>
                <mxCell id="13" value="delete" style="rounded=0;whiteSpace=wrap;html=1;" parent="1" vertex="1">
                    <mxGeometry x="480" y="205" width="30" height="20" as="geometry"/>
                </mxCell>
                <mxCell id="14" value="info" style="rounded=0;whiteSpace=wrap;html=1;" parent="1" vertex="1">
                    <mxGeometry x="440" y="205" width="30" height="20" as="geometry"/>
                </mxCell>
                <mxCell id="15" value="" style="rounded=0;whiteSpace=wrap;html=1;" parent="1" vertex="1">
                    <mxGeometry x="200" y="210" width="100" height="10" as="geometry"/>
                </mxCell>
                <mxCell id="16" value="" style="rounded=0;whiteSpace=wrap;html=1;" parent="1" vertex="1">
                    <mxGeometry x="200" y="230" width="100" height="10" as="geometry"/>
                </mxCell>
                <mxCell id="18" value="" style="rounded=0;whiteSpace=wrap;html=1;" parent="1" vertex="1">
                    <mxGeometry x="270" y="250" width="30" height="10" as="geometry"/>
                </mxCell>
                <mxCell id="20" value="" style="rounded=0;whiteSpace=wrap;html=1;" parent="1" vertex="1">
                    <mxGeometry x="190" y="290" width="130" height="100" as="geometry"/>
                </mxCell>
                <mxCell id="22" value="" style="rounded=0;whiteSpace=wrap;html=1;" parent="1" vertex="1">
                    <mxGeometry x="190" y="300" width="130" height="50" as="geometry"/>
                </mxCell>
                <mxCell id="26" value="Edificios" style="text;html=1;strokeColor=none;fillColor=none;align=center;verticalAlign=middle;whiteSpace=wrap;rounded=0;" vertex="1" parent="1">
                    <mxGeometry x="310" y="145" width="60" height="30" as="geometry"/>
                </mxCell>
                <mxCell id="27" value="Eliminar" style="rounded=0;whiteSpace=wrap;html=1;" vertex="1" parent="1">
                    <mxGeometry x="290" y="320" width="30" height="15" as="geometry"/>
                </mxCell>
                <mxCell id="29" value="Eliminar" style="rounded=0;whiteSpace=wrap;html=1;" vertex="1" parent="1">
                    <mxGeometry x="290" y="335" width="30" height="15" as="geometry"/>
                </mxCell>
                <mxCell id="31" value="" style="rounded=0;whiteSpace=wrap;html=1;" vertex="1" parent="1">
                    <mxGeometry x="200" y="322.5" width="30" height="10" as="geometry"/>
                </mxCell>
                <mxCell id="32" value="aÃ±adir" style="rounded=0;whiteSpace=wrap;html=1;" vertex="1" parent="1">
                    <mxGeometry x="280" y="300" width="40" height="10" as="geometry"/>
                </mxCell>
                <mxCell id="33" value="Piso1" style="text;html=1;strokeColor=none;fillColor=none;align=center;verticalAlign=middle;whiteSpace=wrap;rounded=0;" vertex="1" parent="1">
                    <mxGeometry x="190" y="302.5" width="50" height="7.5" as="geometry"/>
                </mxCell>
            </root>
        </mxGraphModel>
    </diagram>
</mxfile>